# xmcd
#
# Track frame offsets: 
#        150
#        19650
#        40263
#        54526
#        70377
#        91200
#        97050
#        105588
#        116979
#        135131
#        145738
#        160234
#        188078
#        204355
#        216022
#        228317
#        236645
#        249059
#        265504
#        274103
#        288272
#
# Disc length: 3951 seconds
#
# Revision: 1
# Processed by: cddbd v1.5.2PL0 Copyright (c) Steve Scherf et al.
# Submitted via: ExactAudioCopy v0.99pb4
#
DISCID=200f6d15
DTITLE=Алексей Козлов - Пионерские-блатные 2
DYEAR=1998
DGENRE=Country
TTITLE0=Мурка
TTITLE1=С Одесского кичмана
TTITLE2=Гоп со смыком
TTITLE3=Вот бледной луной озарился
TTITLE4=Медвежатник
TTITLE5=Урка при фонариках
TTITLE6=Цыпленок жареный
TTITLE7=Моя красавица
TTITLE8=На Дерибасовской открылася пивная
TTITLE9=Еврейская Мурка
TTITLE10=На Молдаванке
TTITLE11=Когда с тобой мы встретились
TTITLE12=Марсель
TTITLE13=Жил-был великий писатель
TTITLE14=Я был батальонный разведчик
TTITLE15=Патрис Лумумба
TTITLE16=Собирался кардинал по грибы
TTITLE17=Серега-пролетарий
TTITLE18=На острове Таити
TTITLE19=Новобранцы
TTITLE20=Сидели мы на крыше
EXTD=YEAR: 1998
EXTT0=
EXTT1=
EXTT2=
EXTT3=
EXTT4=
EXTT5=
EXTT6=
EXTT7=
EXTT8=
EXTT9=
EXTT10=
EXTT11=
EXTT12=
EXTT13=
EXTT14=
EXTT15=
EXTT16=
EXTT17=
EXTT18=
EXTT19=
EXTT20=
PLAYORDER=
